<mxfile host="app.diagrams.net" modified="2020-07-21T20:48:59.468Z" agent="5.0 (Windows)" etag="-EONXxoqIHjkDc1KAhsg" version="13.4.9" type="github">
  <diagram id="15AcsFoqSxiJAv_MaKYl" name="Page-1">
    <mxGraphModel dx="2249" dy="791" grid="1" gridSize="10" guides="1" tooltips="1" connect="1" arrows="1" fold="1" page="1" pageScale="1" pageWidth="827" pageHeight="1169" math="0" shadow="0">
      <root>
        <mxCell id="0" />
        <mxCell id="1" parent="0" />
        <mxCell id="ewORTyJAf1aC9DptC_-D-1" value="&lt;h1&gt;What about me ?&lt;/h1&gt;" style="rounded=0;whiteSpace=wrap;html=1;shadow=1;glass=0;labelBackgroundColor=none;sketch=0;gradientColor=none;fontFamily=Helvetica;fontSize=16;fillColor=#FFFFFF;verticalAlign=top;" vertex="1" parent="1">
          <mxGeometry x="-210" y="40" width="1150" height="1100" as="geometry" />
        </mxCell>
        <mxCell id="ewORTyJAf1aC9DptC_-D-5" value="" style="rounded=0;whiteSpace=wrap;html=1;shadow=0;glass=0;labelBackgroundColor=none;sketch=0;strokeWidth=5;gradientColor=none;fontFamily=Helvetica;fontSize=22;fontColor=#000000;align=center;strokeColor=none;fillColor=none;" vertex="1" parent="1">
          <mxGeometry x="-210" y="480" width="1150" height="660" as="geometry" />
        </mxCell>
        <mxCell id="ewORTyJAf1aC9DptC_-D-2" value="photo" style="shape=card;whiteSpace=wrap;html=1;shadow=0;glass=0;labelBackgroundColor=none;sketch=0;fillColor=#FFFFFF;gradientColor=none;fontFamily=Helvetica;fontSize=16;fontColor=#000000;strokeColor=#FFA00F;strokeWidth=5;" vertex="1" parent="1">
          <mxGeometry x="-180" y="140" width="180" height="230" as="geometry" />
        </mxCell>
        <mxCell id="ewORTyJAf1aC9DptC_-D-3" value="Lorem ipsum dolor sit amet, consectetur adipiscing elit. Morbi malesuada dolor ligula, quis efficitur odio mollis ut. Quisque convallis pharetra nulla, a bibendum eros. Aliquam non eros vitae arcu commodo consectetur&lt;br&gt; ac ac ex. Curabitur mi odio, euismod eget ipsum id, pulvinar mattis eros. Suspendisse vel faucibus nibh.&lt;div&gt;&lt;br&gt;&lt;/div&gt;&lt;div&gt;Mauris scelerisque, est in tincidunt efficitur, sapien risus aliquet neque, vitae varius quam ipsumvel sem. Aenean auctor metus sed est tincidunt luctus. Donec elit arcu,condimentum id nunc sit amet, aliquam tincidunt orci.&lt;/div&gt;&lt;div&gt;&lt;br&gt;&lt;/div&gt;&lt;div&gt;Class aptent taciti sociosqu ad litora torquent per conubia nostra, per inceptos himenaeos. Sed vel placerat nibh. Mauris massa sapien, lacinia et venenatis vel, posuere eget velit. Ut sagittis elit sit amet tortor dignissim, et bibendum velit aliquam. Proin vestibulum ante et velit tristique, sed egestas ipsum pellentesque.&lt;/div&gt;" style="rounded=0;whiteSpace=wrap;html=1;shadow=0;glass=0;labelBackgroundColor=none;sketch=0;strokeWidth=5;fillColor=#FFFFFF;gradientColor=none;fontFamily=Helvetica;fontSize=16;fontColor=#000000;strokeColor=none;verticalAlign=top;align=left;" vertex="1" parent="1">
          <mxGeometry x="37" y="140" width="790" height="250" as="geometry" />
        </mxCell>
        <mxCell id="ewORTyJAf1aC9DptC_-D-4" value="&lt;div style=&quot;font-size: 22px&quot;&gt;If you wanna contact me, discuss about your projects, or just talk,&lt;br&gt;&lt;/div&gt;&lt;div style=&quot;font-size: 22px&quot;&gt;leave me a message in the form below or send me an email.&lt;br style=&quot;font-size: 22px&quot;&gt;&lt;/div&gt;" style="rounded=0;whiteSpace=wrap;html=1;shadow=0;glass=0;labelBackgroundColor=none;sketch=0;strokeWidth=5;fillColor=#FFFFFF;gradientColor=none;fontFamily=Helvetica;fontSize=22;fontColor=#000000;align=center;strokeColor=none;" vertex="1" parent="1">
          <mxGeometry x="-160" y="390" width="1050" height="80" as="geometry" />
        </mxCell>
        <mxCell id="ewORTyJAf1aC9DptC_-D-15" value="&lt;div style=&quot;font-size: 14px&quot;&gt;logo LinkedIn | logo Github | logo CodePen | logo Email&lt;/div&gt;&lt;div style=&quot;font-size: 14px&quot;&gt;&lt;font style=&quot;font-size: 12px&quot;&gt;(c) 2020 LangkaWebStudio. All rights reserved.&lt;/font&gt;&lt;br style=&quot;font-size: 14px&quot;&gt;&lt;/div&gt;" style="rounded=0;whiteSpace=wrap;html=1;shadow=0;glass=0;labelBackgroundColor=none;sketch=0;strokeWidth=5;fillColor=#FFFFFF;gradientColor=none;fontFamily=Helvetica;fontSize=14;fontColor=#000000;align=center;strokeColor=none;" vertex="1" parent="1">
          <mxGeometry x="-210" y="1060" width="1150" height="80" as="geometry" />
        </mxCell>
        <mxCell id="ewORTyJAf1aC9DptC_-D-17" value="" style="rounded=0;whiteSpace=wrap;html=1;shadow=0;glass=0;labelBackgroundColor=none;sketch=0;strokeWidth=5;gradientColor=none;fontFamily=Helvetica;fontSize=14;fontColor=#000000;align=left;strokeColor=none;fillOpacity=100;fillColor=#FFE7B9;" vertex="1" parent="1">
          <mxGeometry x="175" y="490" width="380" height="570" as="geometry" />
        </mxCell>
        <mxCell id="ewORTyJAf1aC9DptC_-D-8" value="Title" style="rounded=0;whiteSpace=wrap;html=1;shadow=0;glass=0;labelBackgroundColor=none;sketch=0;strokeWidth=5;gradientColor=none;fontFamily=Helvetica;fontSize=16;fontColor=#000000;align=left;strokeColor=none;fillColor=none;" vertex="1" parent="1">
          <mxGeometry x="222" y="500" width="88" height="40" as="geometry" />
        </mxCell>
        <mxCell id="ewORTyJAf1aC9DptC_-D-6" value="" style="rounded=1;whiteSpace=wrap;html=1;shadow=1;glass=0;labelBackgroundColor=none;sketch=0;strokeWidth=5;gradientColor=none;fontFamily=Helvetica;fontSize=22;fontColor=#000000;align=center;strokeColor=none;fillColor=#FFFFFF;" vertex="1" parent="1">
          <mxGeometry x="222" y="540" width="276" height="30" as="geometry" />
        </mxCell>
        <mxCell id="ewORTyJAf1aC9DptC_-D-7" value="" style="rounded=1;whiteSpace=wrap;html=1;shadow=1;glass=0;labelBackgroundColor=none;sketch=0;strokeWidth=5;gradientColor=none;fontFamily=Helvetica;fontSize=22;fontColor=#000000;align=center;strokeColor=none;fillColor=#FFFFFF;" vertex="1" parent="1">
          <mxGeometry x="222" y="620" width="276" height="30" as="geometry" />
        </mxCell>
        <mxCell id="ewORTyJAf1aC9DptC_-D-9" value="Name" style="rounded=0;whiteSpace=wrap;html=1;shadow=0;glass=0;labelBackgroundColor=none;sketch=0;strokeWidth=5;gradientColor=none;fontFamily=Helvetica;fontSize=16;fontColor=#000000;align=left;strokeColor=none;fillColor=none;" vertex="1" parent="1">
          <mxGeometry x="222" y="580" width="88" height="40" as="geometry" />
        </mxCell>
        <mxCell id="ewORTyJAf1aC9DptC_-D-10" value="" style="rounded=1;whiteSpace=wrap;html=1;shadow=1;glass=0;labelBackgroundColor=none;sketch=0;strokeWidth=5;gradientColor=none;fontFamily=Helvetica;fontSize=22;fontColor=#000000;align=center;strokeColor=none;fillColor=#FFFFFF;" vertex="1" parent="1">
          <mxGeometry x="222" y="707.5" width="280" height="30" as="geometry" />
        </mxCell>
        <mxCell id="ewORTyJAf1aC9DptC_-D-11" value="Last name" style="rounded=0;whiteSpace=wrap;html=1;shadow=0;glass=0;labelBackgroundColor=none;sketch=0;strokeWidth=5;gradientColor=none;fontFamily=Helvetica;fontSize=16;fontColor=#000000;align=left;strokeColor=none;fillColor=none;" vertex="1" parent="1">
          <mxGeometry x="222" y="667.5" width="88" height="40" as="geometry" />
        </mxCell>
        <mxCell id="ewORTyJAf1aC9DptC_-D-12" value="" style="rounded=1;whiteSpace=wrap;html=1;shadow=1;glass=0;labelBackgroundColor=none;sketch=0;strokeWidth=5;gradientColor=none;fontFamily=Helvetica;fontSize=22;fontColor=#000000;align=center;strokeColor=none;fillColor=#FFFFFF;arcSize=6;" vertex="1" parent="1">
          <mxGeometry x="222" y="795" width="286" height="165" as="geometry" />
        </mxCell>
        <mxCell id="ewORTyJAf1aC9DptC_-D-13" value="Message" style="rounded=0;whiteSpace=wrap;html=1;shadow=0;glass=0;labelBackgroundColor=none;sketch=0;strokeWidth=5;gradientColor=none;fontFamily=Helvetica;fontSize=16;fontColor=#000000;align=left;strokeColor=none;fillColor=none;" vertex="1" parent="1">
          <mxGeometry x="222" y="755" width="88" height="40" as="geometry" />
        </mxCell>
        <mxCell id="ewORTyJAf1aC9DptC_-D-14" value="Send" style="rounded=1;whiteSpace=wrap;html=1;shadow=1;glass=0;labelBackgroundColor=none;sketch=0;strokeWidth=5;gradientColor=none;fontFamily=Helvetica;fontSize=16;fontColor=#000000;align=center;strokeColor=none;fillColor=#FFA00F;" vertex="1" parent="1">
          <mxGeometry x="318" y="980" width="88" height="30" as="geometry" />
        </mxCell>
      </root>
    </mxGraphModel>
  </diagram>
</mxfile>
